<svg width="408" height="99" viewBox="0 0 408 99" fill="none" xmlns="http://www.w3.org/2000/svg">
    <g clip-path="url(#clip0_144_547)">
        <g clip-path="url(#clip1_144_547)">
            <g clip-path="url(#clip2_144_547)">
                <g clip-path="url(#clip3_144_547)">
                    <g clip-path="url(#clip4_144_547)">
                        <g clip-path="url(#clip5_144_547)">
                            <g clip-path="url(#clip6_144_547)">
                                <g clip-path="url(#clip7_144_547)">
                                    <g clip-path="url(#clip8_144_547)">
                                        <path
                                            d="M140.427 65.8273C134.531 65.8273 129.81 64.7089 126.264 62.4721C122.717 60.2441 120.944 56.8314 120.944 52.234C120.944 49.8027 121.365 47.946 122.207 46.6641C123.05 45.3821 124.291 44.7411 125.931 44.7411C127.128 44.7411 128.103 45.0506 128.857 45.6694C129.611 46.2883 129.987 47.084 129.987 48.0566C129.987 48.9407 129.921 49.7143 129.788 50.3774C129.788 50.5542 129.757 50.8636 129.695 51.3057C129.624 51.7478 129.588 52.2119 129.588 52.6982C129.588 54.6874 130.599 56.1683 132.621 57.1409C134.633 58.1134 137.457 58.5997 141.092 58.5997C144.86 58.5997 147.808 57.9233 149.936 56.5706C152.064 55.2267 153.128 53.3392 153.128 50.9078C153.128 49.4048 152.64 48.1096 151.665 47.0221C150.69 45.9435 149.471 45.0373 148.008 44.3035C146.545 43.5785 144.484 42.6855 141.824 41.6246C138.41 40.2984 135.631 39.0386 133.485 37.845C131.331 36.6514 129.491 35.0247 127.966 32.9647C126.432 30.9135 125.665 28.3628 125.665 25.3126C125.665 22.1298 126.521 19.3006 128.232 16.8251C129.934 14.3496 132.395 12.4266 135.613 11.0562C138.823 9.68585 142.6 9.00066 146.944 9.00066C150.18 9.00066 153.15 9.47366 155.854 10.4197C158.559 11.3745 160.722 12.8245 162.344 14.7695C163.958 16.7146 164.765 19.1017 164.765 21.9309C164.765 24.7158 164.344 26.8156 163.502 28.2302C162.659 29.6448 161.418 30.3521 159.778 30.3521C158.625 30.3521 157.663 29.9985 156.892 29.2912C156.112 28.5839 155.721 27.744 155.721 26.7714C155.721 25.9315 155.788 25.1579 155.921 24.4506C156.054 23.1244 156.12 22.2845 156.12 21.9309C156.12 20.0742 155.212 18.6596 153.394 17.6871C151.577 16.7146 149.316 16.2283 146.611 16.2283C142.799 16.2283 139.886 16.9224 137.874 18.3104C135.852 19.7073 134.842 21.6656 134.842 24.1854C134.842 25.8652 135.365 27.3019 136.411 28.4955C137.448 29.689 138.743 30.6836 140.294 31.4794C141.846 32.2751 144.018 33.2255 146.811 34.3306C150.18 35.701 152.884 36.9388 154.924 38.0439C156.963 39.1491 158.705 40.6521 160.15 42.5529C161.586 44.4538 162.305 46.7967 162.305 49.5817C162.305 54.798 160.323 58.8074 156.36 61.6101C152.388 64.4216 147.077 65.8273 140.427 65.8273ZM196.949 50.51C197.526 50.51 197.978 50.7752 198.306 51.3057C198.643 51.8362 198.811 52.5656 198.811 53.4939C198.811 55.2621 198.39 56.6325 197.548 57.605C195.641 59.9479 193.558 61.8709 191.297 63.3739C189.036 64.8769 186.443 65.6284 183.517 65.6284C174.473 65.6284 169.952 59.2849 169.952 46.5978C169.952 44.6527 170.018 42.6855 170.151 40.6963H167.558C166.228 40.6963 165.328 40.4531 164.858 39.9669C164.397 39.4806 164.166 38.707 164.166 37.6461C164.166 35.1705 165.164 33.9328 167.159 33.9328H170.949C171.703 29.0701 172.855 24.6274 174.407 20.6047C175.959 16.582 177.829 13.377 180.019 10.9899C182.218 8.6028 184.581 7.40924 187.108 7.40924C188.97 7.40924 190.433 8.22705 191.497 9.86267C192.56 11.4983 193.092 13.5539 193.092 16.0294C193.092 22.8813 190.211 28.8491 184.448 33.9328H191.895C192.605 33.9328 193.115 34.0875 193.425 34.3969C193.735 34.7064 193.89 35.2811 193.89 36.121C193.89 39.1712 191.386 40.6963 186.376 40.6963H178.264C178.175 42.9066 178.131 44.6306 178.131 45.8684C178.131 50.4658 178.672 53.6928 179.753 55.5495C180.844 57.4061 182.564 58.3344 184.913 58.3344C186.82 58.3344 188.504 57.7598 189.967 56.6104C191.43 55.461 193.159 53.737 195.154 51.4383C195.686 50.8194 196.284 50.51 196.949 50.51ZM185.312 13.7749C184.647 13.7749 183.903 14.6015 183.078 16.2548C182.262 17.917 181.487 20.2157 180.751 23.151C180.024 26.0951 179.416 29.3575 178.929 32.9381C181.544 30.6836 183.504 28.1506 184.807 25.3392C186.119 22.5365 186.775 19.9858 186.775 17.6871C186.775 15.079 186.288 13.7749 185.312 13.7749ZM198.146 65.6284C196.453 65.6284 195.265 64.7443 194.582 62.976C193.899 61.2078 193.558 58.3786 193.558 54.4885C193.558 48.7417 194.378 43.2823 196.018 38.1102C196.408 36.8283 197.06 35.8867 197.973 35.2855C198.886 34.6931 200.163 34.3969 201.803 34.3969C202.69 34.3969 203.311 34.5075 203.665 34.7285C204.02 34.9495 204.197 35.3695 204.197 35.9883C204.197 36.6956 203.865 38.2871 203.2 40.7626C202.757 42.5308 202.402 44.078 202.136 45.4042C201.87 46.7304 201.648 48.366 201.471 50.3111C202.934 46.5094 204.574 43.4149 206.392 41.0278C208.209 38.6407 209.991 36.9388 211.738 35.922C213.494 34.9053 215.098 34.3969 216.552 34.3969C219.434 34.3969 220.875 35.8336 220.875 38.707C220.875 39.2817 220.68 40.6742 220.289 42.8845C219.935 44.6527 219.757 45.7579 219.757 46.1999C219.757 47.7471 220.312 48.5207 221.42 48.5207C222.661 48.5207 224.253 47.5482 226.194 45.6031C226.779 45.0285 227.382 44.7411 228.003 44.7411C228.57 44.7411 229.023 44.9931 229.36 45.497C229.688 46.0098 229.852 46.6862 229.852 47.5261C229.852 49.1617 229.408 50.4437 228.522 51.372C227.289 52.654 225.84 53.7459 224.173 54.6477C222.515 55.5583 220.75 56.0136 218.88 56.0136C216.539 56.0136 214.757 55.4168 213.533 54.2233C212.319 53.0297 211.711 51.4162 211.711 49.3827C211.711 48.7196 211.773 48.0566 211.898 47.3935C211.995 46.5094 212.044 45.9126 212.044 45.6031C212.044 44.8958 211.8 44.5422 211.312 44.5422C210.647 44.5422 209.77 45.2804 208.679 46.7569C207.598 48.2422 206.525 50.2005 205.461 52.6319C204.397 55.0632 203.532 57.6271 202.867 60.3237C202.38 62.4014 201.812 63.8027 201.165 64.5277C200.527 65.2615 199.52 65.6284 198.146 65.6284ZM253.325 50.51C253.901 50.51 254.358 50.7752 254.695 51.3057C255.023 51.8362 255.187 52.5656 255.187 53.4939C255.187 55.2621 254.766 56.6325 253.923 57.605C252.283 59.5943 249.969 61.4288 246.981 63.1087C243.984 64.7885 240.779 65.6284 237.366 65.6284C232.711 65.6284 229.098 64.3685 226.527 61.8488C223.956 59.3291 222.67 55.881 222.67 51.5046C222.67 48.4544 223.313 45.6164 224.598 42.9906C225.884 40.3559 227.671 38.265 229.958 36.7178C232.237 35.1705 234.817 34.3969 237.698 34.3969C240.269 34.3969 242.331 35.1573 243.882 36.678C245.434 38.2075 246.21 40.2763 246.21 42.8845C246.21 45.9347 245.115 48.5517 242.925 50.7354C240.726 52.928 237.011 54.6653 231.78 55.9473C232.888 57.9808 234.994 58.9975 238.097 58.9975C240.092 58.9975 242.366 58.2991 244.92 56.9022C247.464 55.5141 249.668 53.6928 251.529 51.4383C252.061 50.8194 252.66 50.51 253.325 50.51ZM236.568 40.8952C234.928 40.8952 233.544 41.8456 232.418 43.7465C231.284 45.6473 230.716 47.946 230.716 50.6426V50.7752C233.332 50.1563 235.393 49.228 236.9 47.9902C238.407 46.7525 239.161 45.3158 239.161 43.6802C239.161 42.8403 238.931 42.1683 238.47 41.6644C238 41.1516 237.366 40.8952 236.568 40.8952ZM257.647 65.6284C254.899 65.6284 252.704 64.6338 251.064 62.6445C249.424 60.6552 248.604 58.0471 248.604 54.8201C248.604 51.2836 249.424 47.9328 251.064 44.7676C252.704 41.6113 254.89 39.0695 257.621 37.1421C260.342 35.2236 263.233 34.2643 266.292 34.2643C267.267 34.2643 267.923 34.45 268.26 34.8213C268.588 35.2015 268.863 35.8778 269.084 36.8504C270.015 36.6735 270.991 36.5851 272.01 36.5851C274.183 36.5851 275.269 37.3587 275.269 38.9059C275.269 39.8343 274.936 42.0446 274.271 45.5368C273.252 50.6205 272.742 54.157 272.742 56.1462C272.742 56.8093 272.91 57.3398 273.247 57.7376C273.575 58.1355 274.005 58.3344 274.537 58.3344C275.379 58.3344 276.399 57.7907 277.596 56.7032C278.793 55.6246 280.411 53.8696 282.45 51.4383C282.982 50.8194 283.581 50.51 284.246 50.51C284.822 50.51 285.279 50.7752 285.615 51.3057C285.944 51.8362 286.108 52.5656 286.108 53.4939C286.108 55.2621 285.686 56.6325 284.844 57.605C283.027 59.8595 281.098 61.7604 279.059 63.3076C277.02 64.8548 275.047 65.6284 273.141 65.6284C271.678 65.6284 270.339 65.1289 269.124 64.1298C267.901 63.1396 266.979 61.7825 266.358 60.0585C264.053 63.7718 261.149 65.6284 257.647 65.6284ZM260.041 58.9312C261.016 58.9312 261.947 58.3565 262.834 57.2072C263.72 56.0578 264.363 54.5327 264.762 52.6319L267.223 40.431C265.361 40.4753 263.645 41.1693 262.076 42.5131C260.498 43.8658 259.243 45.6473 258.312 47.8576C257.381 50.0679 256.916 52.4108 256.916 54.8864C256.916 56.2568 257.195 57.2735 257.754 57.9366C258.303 58.5997 259.066 58.9312 260.041 58.9312ZM285.443 65.6284C283.758 65.6284 282.57 64.7443 281.878 62.976C281.196 61.2078 280.854 58.3786 280.854 54.4885C280.854 48.7417 281.674 43.2823 283.315 38.1102C283.714 36.8283 284.365 35.8867 285.27 35.2855C286.183 34.6931 287.46 34.3969 289.1 34.3969C289.987 34.3969 290.607 34.5075 290.962 34.7285C291.316 34.9495 291.494 35.3695 291.494 35.9883C291.494 36.6956 291.161 38.2871 290.496 40.7626C290.053 42.5308 289.698 44.0648 289.432 45.3644C289.166 46.6729 288.945 48.2997 288.767 50.2448C289.964 46.7967 291.392 43.8791 293.05 41.492C294.717 39.1049 296.423 37.3234 298.17 36.1475C299.926 34.9805 301.579 34.3969 303.131 34.3969C304.682 34.3969 305.777 34.7506 306.416 35.4579C307.063 36.1652 307.386 37.2482 307.386 38.707C307.386 40.1216 306.965 42.6855 306.123 46.3988C305.768 47.9902 305.525 49.1838 305.392 49.9795C307.608 44.5422 310.068 40.5858 312.773 38.1102C315.477 35.6347 318.004 34.3969 320.353 34.3969C323.235 34.3969 324.675 35.8336 324.675 38.707C324.675 40.431 324.188 43.5476 323.213 48.0566C322.37 51.9025 321.949 54.4443 321.949 55.6821C321.949 57.4503 322.592 58.3344 323.878 58.3344C324.764 58.3344 325.815 57.7907 327.029 56.7032C328.253 55.6246 329.884 53.8696 331.924 51.4383C332.456 50.8194 333.054 50.51 333.719 50.51C334.295 50.51 334.747 50.7752 335.076 51.3057C335.412 51.8362 335.581 52.5656 335.581 53.4939C335.581 55.2621 335.16 56.6325 334.317 57.605C332.411 59.9479 330.359 61.8709 328.16 63.3739C325.97 64.8769 323.479 65.6284 320.686 65.6284C318.425 65.6284 316.718 64.9742 315.565 63.6657C314.413 62.366 313.837 60.4784 313.837 58.0029C313.837 56.7651 314.147 54.5548 314.768 51.372C315.344 48.587 315.632 46.6641 315.632 45.6031C315.632 44.8958 315.388 44.5422 314.9 44.5422C314.324 44.5422 313.504 45.2804 312.44 46.7569C311.376 48.2422 310.312 50.2005 309.248 52.6319C308.184 55.0632 307.32 57.6271 306.655 60.3237C306.167 62.4456 305.6 63.8602 304.953 64.5675C304.314 65.2748 303.286 65.6284 301.867 65.6284C300.404 65.6284 299.305 64.9299 298.569 63.533C297.842 62.145 297.478 60.4563 297.478 58.467C297.478 56.7872 297.7 54.3559 298.143 51.1731C298.498 48.3439 298.675 46.4873 298.675 45.6031C298.675 44.8958 298.432 44.5422 297.944 44.5422C297.279 44.5422 296.437 45.3379 295.417 46.9293C294.397 48.5207 293.409 50.5542 292.451 53.0297C291.503 55.5052 290.74 57.9366 290.164 60.3237C289.676 62.4014 289.109 63.8027 288.462 64.5277C287.823 65.2615 286.817 65.6284 285.443 65.6284ZM338.906 30.0206C337.044 30.0206 335.647 29.5873 334.716 28.7209C333.785 27.8633 333.32 26.6609 333.32 25.1137C333.32 23.5665 333.927 22.2713 335.142 21.228C336.366 20.1936 337.886 19.6764 339.704 19.6764C341.344 19.6764 342.674 20.0742 343.693 20.8699C344.713 21.6656 345.223 22.7929 345.223 24.2517C345.223 26.0199 344.647 27.4212 343.494 28.4557C342.341 29.4989 340.812 30.0206 338.906 30.0206ZM338.374 65.6284C335.492 65.6284 333.395 64.6117 332.083 62.5782C330.78 60.5447 330.128 57.8482 330.128 54.4885C330.128 52.4992 330.381 49.9441 330.886 46.8232C331.4 43.7111 332.057 40.8068 332.855 38.1102C333.253 36.6956 333.785 35.7231 334.45 35.1926C335.115 34.6622 336.179 34.3969 337.642 34.3969C339.903 34.3969 341.034 35.1484 341.034 36.6514C341.034 37.7566 340.612 40.3205 339.77 44.3433C338.706 49.2059 338.174 52.4993 338.174 54.2233C338.174 55.5495 338.352 56.5662 338.706 57.2735C339.061 57.9808 339.659 58.3344 340.502 58.3344C341.3 58.3344 342.297 57.7819 343.494 56.6767C344.691 55.5716 346.287 53.8254 348.282 51.4383C348.814 50.8194 349.412 50.51 350.077 50.51C350.653 50.51 351.106 50.7752 351.434 51.3057C351.771 51.8362 351.939 52.5656 351.939 53.4939C351.939 55.2621 351.518 56.6325 350.676 57.605C346.287 62.9539 342.186 65.6284 338.374 65.6284ZM372.407 46.7304C373.648 46.7304 374.268 47.6587 374.268 49.5154C374.268 53.0076 371.52 54.7537 366.023 54.7537C364.959 54.7537 363.43 54.5548 361.435 54.157C362.011 56.8977 362.49 59.9347 362.871 63.2678C363.243 66.6098 363.43 69.3638 363.43 71.5299C363.43 76.3041 362.654 79.9511 361.102 82.4708C359.551 84.9906 357.511 86.2504 354.985 86.2504C351.793 86.2504 349.523 83.9959 348.175 79.4869C346.819 74.9779 346.141 68.1702 346.141 59.0638C346.141 50.5763 347.063 41.965 348.907 33.2299C350.742 24.5037 353.269 17.276 356.487 11.5469C359.697 5.82668 363.23 2.96655 367.087 2.96655C369.17 2.96655 370.802 3.89487 371.981 5.75152C373.151 7.60817 373.737 10.1058 373.737 13.2444C373.737 23.6328 367.508 34.9495 355.051 47.1945C354.608 51.5267 354.386 55.3284 354.386 58.5997C354.386 63.1529 354.541 67.8298 354.852 72.6306C355.162 77.4225 355.672 79.8185 356.381 79.8185C357.711 79.8185 358.376 77.5198 358.376 72.9224C358.376 69.4743 358.145 66.1368 357.684 62.9097C357.214 59.6827 356.58 56.2789 355.782 52.6982C355.738 52.1235 355.929 51.3941 356.354 50.51C356.771 49.6259 357.29 48.8523 357.91 48.1892C358.531 47.5261 359.085 47.1945 359.573 47.1945C360.459 47.1945 361.523 47.2388 362.765 47.3272C363.164 47.3714 363.629 47.3935 364.161 47.3935C365.934 47.3935 367.907 47.2388 370.079 46.9293C370.434 46.8851 370.811 46.8409 371.21 46.7967C371.609 46.7525 372.008 46.7304 372.407 46.7304ZM365.69 9.53113C364.892 9.53113 363.908 10.8794 362.738 13.576C361.559 16.2725 360.393 19.8399 359.24 24.2782C358.088 28.7253 357.09 33.4244 356.248 38.3755C359.794 34.3527 362.521 30.162 364.427 25.8033C366.333 21.4535 367.309 17.3777 367.353 13.576C367.353 10.8794 366.799 9.53113 365.69 9.53113ZM403.261 50.6426C403.837 50.6426 404.294 50.9167 404.631 51.4648C404.959 52.0218 405.123 52.7203 405.123 53.5602C405.123 54.5769 404.968 55.3726 404.657 55.9473C404.347 56.522 403.859 57.0304 403.194 57.4724L390.427 66.0263C388.743 75.1769 386.539 82.3692 383.817 87.6031C381.087 92.846 377.615 95.4674 373.404 95.4674C371.143 95.4674 369.303 94.7733 367.885 93.3853C366.466 91.9884 365.757 90.1627 365.757 87.9082C365.757 85.8305 366.236 83.7086 367.193 81.5425C368.142 79.3764 369.915 76.8921 372.513 74.0894C375.102 71.2779 378.768 68.0597 383.511 64.4348L383.711 62.9097C384.021 61.2741 384.376 58.9312 384.775 55.881C383.888 59.0638 382.647 61.4819 381.051 63.1352C379.455 64.7973 377.771 65.6284 375.997 65.6284C374.002 65.6284 372.376 64.7089 371.117 62.8699C369.849 61.0398 369.215 58.7544 369.215 56.0136C369.215 52.6982 369.436 49.6568 369.88 46.8895C370.323 44.1311 371.054 41.2046 372.074 38.1102C372.517 36.7841 373.138 35.8336 373.936 35.259C374.734 34.6843 375.997 34.3969 377.726 34.3969C378.702 34.3969 379.38 34.5517 379.761 34.8611C380.133 35.1705 380.32 35.6347 380.32 36.2536C380.32 36.6072 380.076 37.8008 379.588 39.8343C379.145 41.4699 378.79 42.9508 378.524 44.277C378.17 46.0894 377.859 47.8223 377.593 49.4756C377.327 51.1377 377.194 52.4993 377.194 53.5602C377.194 55.24 377.66 56.0799 378.591 56.0799C379.256 56.0799 380.089 55.4168 381.091 54.0907C382.084 52.7645 383.148 50.7531 384.283 48.0566C385.409 45.36 386.504 42.0446 387.568 38.1102C387.922 36.7841 388.468 35.8336 389.204 35.259C389.931 34.6843 391.026 34.3969 392.488 34.3969C393.508 34.3969 394.217 34.5296 394.616 34.7948C395.015 35.06 395.215 35.5021 395.215 36.121C395.215 37.2261 394.639 41.0278 393.486 47.5261L391.757 58.2018C395.171 55.6379 398.495 53.295 401.731 51.1731C402.308 50.8194 402.818 50.6426 403.261 50.6426ZM374.135 89.0354C375.244 89.0354 376.485 87.7534 377.859 85.1895C379.234 82.6256 380.608 78.3597 381.982 72.3919C378.569 75.2653 376.099 77.8867 374.574 80.2561C373.041 82.6167 372.274 84.6811 372.274 86.4494C372.274 87.2009 372.42 87.8198 372.712 88.306C372.996 88.7923 373.471 89.0354 374.135 89.0354Z"
                                            fill="#4B6D9B" />
                                    </g>
                                </g>
                            </g>
                        </g>
                        <g clip-path="url(#clip9_144_547)">
                            <g clip-path="url(#clip10_144_547)">
                                <path
                                    d="M39.804 78.7471C61.576 78.7471 79.2889 61.0841 79.2889 39.3735C79.2889 35.9293 78.8397 32.5875 78.0027 29.4012L73.4481 39.6206L66.7613 46.3279L67.9942 47.6174L60.5385 52.667L58.4942 50.529L63.9036 43.3414L65.4692 44.9784L71.5567 38.7997L77.0955 26.458C71.7216 11.0738 57.0401 0 39.804 0C18.032 0 0.319092 17.663 0.319092 39.3735C0.319092 61.0841 18.032 78.7471 39.804 78.7471ZM39.804 22.6398C49.0573 22.6398 56.5851 30.1463 56.5851 39.3735C56.5851 48.6007 49.0573 56.1073 39.804 56.1073C30.5507 56.1073 23.0229 48.6007 23.0229 39.3735C23.0229 30.1463 30.5507 22.6398 39.804 22.6398Z"
                                    fill="#4B6D9B" />
                                <path
                                    d="M39.804 51.1856C46.3466 51.1856 51.6494 45.8978 51.6494 39.3736C51.6494 32.8494 46.3466 27.5615 39.804 27.5615C33.2613 27.5615 27.9585 32.8494 27.9585 39.3736C27.9585 45.8978 33.2613 51.1856 39.804 51.1856ZM39.804 37.4049C40.0633 37.405 40.3201 37.456 40.5596 37.555C40.7992 37.654 41.0168 37.7991 41.2002 37.982C41.3835 38.1649 41.5289 38.382 41.6281 38.621C41.7273 38.8599 41.7783 39.116 41.7782 39.3746C41.7781 39.6332 41.727 39.8892 41.6277 40.1281C41.5284 40.367 41.3829 40.584 41.1995 40.7668C41.0161 40.9496 40.7983 41.0946 40.5587 41.1935C40.3191 41.2924 40.0623 41.3433 39.803 41.3432C39.2792 41.3431 38.777 41.1355 38.4068 40.7661C38.0365 40.3968 37.8286 39.8958 37.8287 39.3736C37.8289 38.8513 38.037 38.3505 38.4075 37.9813C38.7779 37.6121 39.2802 37.4048 39.804 37.4049Z"
                                    fill="#4B6D9B" />
                                <path
                                    d="M27.1491 0H6.24183C2.29334 0 0.319092 1.96868 0.319092 5.90603V26.7543C4.39196 14.0741 14.433 4.06138 27.1491 0Z"
                                    fill="#4B6D9B" />
                                <path
                                    d="M86.1987 77.7627C81.8445 77.7627 78.3018 81.2955 78.3018 85.6374C78.3018 89.9793 81.8445 93.5121 86.1987 93.5121C90.5529 93.5121 94.0957 89.9793 94.0957 85.6374C94.0957 81.2955 90.5529 77.7627 86.1987 77.7627Z"
                                    fill="#4B6D9B" />
                                <path
                                    d="M93.1086 0H52.4678C64.2047 3.7523 73.6613 12.5798 78.2465 23.8928L81.122 17.4878C80.3425 16.9762 79.7025 16.2797 79.2596 15.4607C78.8166 14.6417 78.5845 13.7259 78.5841 12.7954C78.5841 9.69475 81.1141 7.1709 84.2245 7.1709C87.3349 7.1709 89.8649 9.69573 89.8649 12.7964C89.8649 15.8971 87.3339 18.4209 84.2245 18.4209C83.7902 18.4209 83.3687 18.3668 82.962 18.2742L79.2425 26.6195C80.5818 30.739 81.2636 35.0429 81.2631 39.3735C81.2631 62.2062 62.7013 80.7157 39.804 80.7157C21.3201 80.7157 5.66929 68.6527 0.319092 51.9927V92.5278C0.319092 96.4651 2.29334 98.4338 6.24183 98.4338H93.1086C97.0571 98.4338 99.0313 96.4651 99.0313 92.5278V5.90603C99.0313 1.96868 97.0571 0 93.1086 0ZM8.21607 95.4808C7.16887 95.4808 6.16455 95.066 5.42407 94.3276C4.68358 93.5892 4.26758 92.5877 4.26758 91.5435C4.26758 90.4992 4.68358 89.4977 5.42407 88.7593C6.16455 88.0209 7.16887 87.6061 8.21607 87.6061C9.26327 87.6061 10.2676 88.0209 11.0081 88.7593C11.7486 89.4977 12.1646 90.4992 12.1646 91.5435C12.1646 92.5877 11.7486 93.5892 11.0081 94.3276C10.2676 95.066 9.26327 95.4808 8.21607 95.4808ZM20.0615 95.4808C19.0143 95.4808 18.01 95.066 17.2695 94.3276C16.529 93.5892 16.113 92.5877 16.113 91.5435C16.113 90.4992 16.529 89.4977 17.2695 88.7593C18.01 88.0209 19.0143 87.6061 20.0615 87.6061C21.1087 87.6061 22.1131 88.0209 22.8535 88.7593C23.594 89.4977 24.01 90.4992 24.01 91.5435C24.01 92.5877 23.594 93.5892 22.8535 94.3276C22.1131 95.066 21.1087 95.4808 20.0615 95.4808ZM31.907 95.4808C30.8598 95.4808 29.8555 95.066 29.115 94.3276C28.3745 93.5892 27.9585 92.5877 27.9585 91.5435C27.9585 90.4992 28.3745 89.4977 29.115 88.7593C29.8555 88.0209 30.8598 87.6061 31.907 87.6061C32.9542 87.6061 33.9585 88.0209 34.699 88.7593C35.4395 89.4977 35.8555 90.4992 35.8555 91.5435C35.8555 92.5877 35.4395 93.5892 34.699 94.3276C33.9585 95.066 32.9542 95.4808 31.907 95.4808ZM86.1987 95.4808C80.7557 95.4808 76.3275 91.0651 76.3275 85.6374C76.3275 80.2098 80.7557 75.794 86.1987 75.794C91.6417 75.794 96.07 80.2098 96.07 85.6374C96.07 91.0651 91.6417 95.4808 86.1987 95.4808Z"
                                    fill="#4B6D9B" />
                            </g>
                        </g>
                    </g>
                </g>
            </g>
        </g>
    </g>
    <defs>
        <clipPath id="clip0_144_547">
            <rect width="408" height="99" fill="white" />
        </clipPath>
        <clipPath id="clip1_144_547">
            <rect width="408" height="99" fill="white" transform="translate(-2.13867 -0.283081)" />
        </clipPath>
        <clipPath id="clip2_144_547">
            <rect width="404.817" height="98.4338" fill="white" transform="translate(0.319092)" />
        </clipPath>
        <clipPath id="clip3_144_547">
            <rect width="404.817" height="98.4338" fill="white" transform="translate(0.319092)" />
        </clipPath>
        <clipPath id="clip4_144_547">
            <rect width="404.817" height="98.4338" fill="white" transform="translate(0.319092)" />
        </clipPath>
        <clipPath id="clip5_144_547">
            <rect width="284.206" height="92.5008" fill="white" transform="translate(120.93 2.96655)" />
        </clipPath>
        <clipPath id="clip6_144_547">
            <rect width="284.206" height="92.5008" fill="white" transform="translate(120.93 2.96655)" />
        </clipPath>
        <clipPath id="clip7_144_547">
            <rect width="284.206" height="92.5008" fill="white" transform="translate(120.93 2.96655)" />
        </clipPath>
        <clipPath id="clip8_144_547">
            <rect width="284.206" height="92.5008" fill="white" transform="translate(120.93 2.96655)" />
        </clipPath>
        <clipPath id="clip9_144_547">
            <rect width="98.7122" height="98.4338" fill="white" transform="translate(0.319092)" />
        </clipPath>
        <clipPath id="clip10_144_547">
            <rect width="98.7122" height="98.4338" fill="white" transform="translate(0.319092)" />
        </clipPath>
    </defs>
</svg>