<svg width="99" height="99" viewBox="0 0 99 99" fill="none" xmlns="http://www.w3.org/2000/svg">
    <g clip-path="url(#clip0_144_549)">
        <g clip-path="url(#clip1_144_549)">
            <g clip-path="url(#clip2_144_549)">
                <path
                    d="M39.4849 78.7471C61.2569 78.7471 78.9698 61.0841 78.9698 39.3735C78.9698 35.9293 78.5206 32.5875 77.6836 29.4012L73.129 39.6206L66.4422 46.3279L67.6751 47.6174L60.2194 52.667L58.1751 50.529L63.5845 43.3414L65.1501 44.9784L71.2377 38.7997L76.7764 26.458C71.4025 11.0738 56.721 0 39.4849 0C17.7129 0 0 17.663 0 39.3735C0 61.0841 17.7129 78.7471 39.4849 78.7471ZM39.4849 22.6398C48.7382 22.6398 56.266 30.1463 56.266 39.3735C56.266 48.6007 48.7382 56.1073 39.4849 56.1073C30.2316 56.1073 22.7038 48.6007 22.7038 39.3735C22.7038 30.1463 30.2316 22.6398 39.4849 22.6398Z"
                    fill="#4B6D9B" />
                <path
                    d="M39.4849 51.1856C46.0275 51.1856 51.3303 45.8978 51.3303 39.3736C51.3303 32.8494 46.0275 27.5615 39.4849 27.5615C32.9422 27.5615 27.6394 32.8494 27.6394 39.3736C27.6394 45.8978 32.9422 51.1856 39.4849 51.1856ZM39.4849 37.4049C39.7442 37.405 40.001 37.456 40.2405 37.555C40.4801 37.654 40.6978 37.7991 40.8811 37.982C41.0644 38.1649 41.2098 38.382 41.309 38.621C41.4082 38.8599 41.4592 39.116 41.4591 39.3746C41.4591 39.6332 41.4079 39.8892 41.3086 40.1281C41.2093 40.367 41.0638 40.584 40.8804 40.7668C40.697 40.9496 40.4792 41.0946 40.2396 41.1935C40 41.2924 39.7432 41.3433 39.4839 41.3432C38.9602 41.3431 38.4579 41.1355 38.0877 40.7661C37.7174 40.3968 37.5095 39.8958 37.5096 39.3736C37.5098 38.8513 37.7179 38.3505 38.0884 37.9813C38.4588 37.6121 38.9611 37.4048 39.4849 37.4049Z"
                    fill="#4B6D9B" />
                <path
                    d="M26.83 0H5.92273C1.97424 0 0 1.96868 0 5.90603V26.7543C4.07287 14.0741 14.1139 4.06138 26.83 0Z"
                    fill="#4B6D9B" />
                <path
                    d="M85.8796 77.7627C81.5254 77.7627 77.9827 81.2955 77.9827 85.6374C77.9827 89.9793 81.5254 93.5121 85.8796 93.5121C90.2338 93.5121 93.7766 89.9793 93.7766 85.6374C93.7766 81.2955 90.2338 77.7627 85.8796 77.7627Z"
                    fill="#4B6D9B" />
                <path
                    d="M92.7895 0H52.1487C63.8856 3.7523 73.3422 12.5798 77.9274 23.8928L80.8029 17.4878C80.0234 16.9762 79.3835 16.2797 78.9405 15.4607C78.4976 14.6417 78.2654 13.7259 78.265 12.7954C78.265 9.69475 80.795 7.1709 83.9054 7.1709C87.0158 7.1709 89.5458 9.69573 89.5458 12.7964C89.5458 15.8971 87.0148 18.4209 83.9054 18.4209C83.4711 18.4209 83.0496 18.3668 82.6429 18.2742L78.9234 26.6195C80.2627 30.739 80.9445 35.0429 80.944 39.3735C80.944 62.2062 62.3822 80.7157 39.4849 80.7157C21.001 80.7157 5.3502 68.6527 0 51.9927V92.5278C0 96.4651 1.97424 98.4338 5.92273 98.4338H92.7895C96.738 98.4338 98.7122 96.4651 98.7122 92.5278V5.90603C98.7122 1.96868 96.738 0 92.7895 0ZM7.89698 95.4808C6.84977 95.4808 5.84546 95.066 5.10497 94.3276C4.36449 93.5892 3.94849 92.5877 3.94849 91.5435C3.94849 90.4992 4.36449 89.4977 5.10497 88.7593C5.84546 88.0209 6.84977 87.6061 7.89698 87.6061C8.94418 87.6061 9.9485 88.0209 10.689 88.7593C11.4295 89.4977 11.8455 90.4992 11.8455 91.5435C11.8455 92.5877 11.4295 93.5892 10.689 94.3276C9.9485 95.066 8.94418 95.4808 7.89698 95.4808ZM19.7424 95.4808C18.6952 95.4808 17.6909 95.066 16.9504 94.3276C16.21 93.5892 15.794 92.5877 15.794 91.5435C15.794 90.4992 16.21 89.4977 16.9504 88.7593C17.6909 88.0209 18.6952 87.6061 19.7424 87.6061C20.7896 87.6061 21.794 88.0209 22.5344 88.7593C23.2749 89.4977 23.6909 90.4992 23.6909 91.5435C23.6909 92.5877 23.2749 93.5892 22.5344 94.3276C21.794 95.066 20.7896 95.4808 19.7424 95.4808ZM31.5879 95.4808C30.5407 95.4808 29.5364 95.066 28.7959 94.3276C28.0554 93.5892 27.6394 92.5877 27.6394 91.5435C27.6394 90.4992 28.0554 89.4977 28.7959 88.7593C29.5364 88.0209 30.5407 87.6061 31.5879 87.6061C32.6351 87.6061 33.6394 88.0209 34.3799 88.7593C35.1204 89.4977 35.5364 90.4992 35.5364 91.5435C35.5364 92.5877 35.1204 93.5892 34.3799 94.3276C33.6394 95.066 32.6351 95.4808 31.5879 95.4808ZM85.8796 95.4808C80.4366 95.4808 76.0084 91.0651 76.0084 85.6374C76.0084 80.2098 80.4366 75.794 85.8796 75.794C91.3226 75.794 95.7509 80.2098 95.7509 85.6374C95.7509 91.0651 91.3226 95.4808 85.8796 95.4808Z"
                    fill="#4B6D9B" />
            </g>
        </g>
    </g>
    <defs>
        <clipPath id="clip0_144_549">
            <rect width="98.7122" height="98.4338" fill="white" />
        </clipPath>
        <clipPath id="clip1_144_549">
            <rect width="98.7122" height="98.4338" fill="white" />
        </clipPath>
        <clipPath id="clip2_144_549">
            <rect width="98.7122" height="98.4338" fill="white" />
        </clipPath>
    </defs>
</svg>
