<svg width="197" height="50" viewBox="0 0 197 50" fill="none" xmlns="http://www.w3.org/2000/svg">
    <g clip-path="url(#clip0_62_165)">
        <g clip-path="url(#clip1_62_165)">
            <g clip-path="url(#clip2_62_165)">
                <g clip-path="url(#clip3_62_165)">
                    <g clip-path="url(#clip4_62_165)">
                        <g clip-path="url(#clip5_62_165)">
                            <g clip-path="url(#clip6_62_165)">
                                <g clip-path="url(#clip7_62_165)">
                                    <g clip-path="url(#clip8_62_165)">
                                        <path
                                            d="M67.8042 33.2461C64.9574 33.2461 62.6778 32.6812 60.9654 31.5515C59.253 30.4263 58.3968 28.7027 58.3968 26.3808C58.3968 25.1528 58.6001 24.2151 59.0068 23.5677C59.4135 22.9202 60.0129 22.5965 60.8048 22.5965C61.3828 22.5965 61.8537 22.7528 62.2176 23.0653C62.5814 23.3779 62.7634 23.7798 62.7634 24.271C62.7634 24.7175 62.7313 25.1082 62.6671 25.4431C62.6671 25.5324 62.6521 25.6887 62.6221 25.9119C62.5879 26.1352 62.5707 26.3696 62.5707 26.6152C62.5707 27.6199 63.0588 28.3678 64.0348 28.859C65.0066 29.3502 66.3701 29.5958 68.1253 29.5958C69.9447 29.5958 71.3681 29.2542 72.3956 28.571C73.423 27.8923 73.9367 26.9389 73.9367 25.711C73.9367 24.9519 73.7013 24.2978 73.2304 23.7485C72.7595 23.2038 72.1708 22.7461 71.4645 22.3755C70.7581 22.0093 69.7628 21.5583 68.4785 21.0225C66.8303 20.3527 65.4882 19.7164 64.4522 19.1136C63.412 18.5108 62.5237 17.6892 61.7873 16.6488C61.0467 15.6129 60.6764 14.3246 60.6764 12.7841C60.6764 11.1766 61.0895 9.74776 61.9158 8.4975C62.7377 7.24723 63.9257 6.27604 65.4797 5.58392C67.0294 4.89181 68.8531 4.54576 70.9508 4.54576C72.5133 4.54576 73.9474 4.78465 75.2531 5.26243C76.5588 5.74467 77.6034 6.47697 78.3868 7.45933C79.1659 8.44168 79.5555 9.64729 79.5555 11.0762C79.5555 12.4827 79.3522 13.5432 78.9455 14.2577C78.5388 14.9721 77.9394 15.3293 77.1475 15.3293C76.5909 15.3293 76.1265 15.1507 75.754 14.7935C75.3773 14.4363 75.1889 14.0121 75.1889 13.5209C75.1889 13.0967 75.221 12.706 75.2852 12.3488C75.3495 11.679 75.3816 11.2548 75.3816 11.0762C75.3816 10.1385 74.9428 9.42403 74.0652 8.93286C73.1876 8.44168 72.0959 8.19609 70.7902 8.19609C68.9494 8.19609 67.5431 8.54661 66.5713 9.24766C65.5953 9.95316 65.1072 10.9422 65.1072 12.2148C65.1072 13.0632 65.3598 13.7888 65.865 14.3916C66.3658 14.9944 66.9908 15.4968 67.74 15.8986C68.4892 16.3005 69.538 16.7805 70.8865 17.3387C72.5133 18.0308 73.819 18.6559 74.8036 19.2141C75.7883 19.7722 76.6295 20.5313 77.3273 21.4913C78.0208 22.4514 78.3675 23.6347 78.3675 25.0412C78.3675 27.6757 77.4107 29.7007 75.4971 31.1162C73.5793 32.5361 71.015 33.2461 67.8042 33.2461ZM95.0955 25.5101C95.3737 25.5101 95.592 25.644 95.7504 25.9119C95.9131 26.1799 95.9945 26.5482 95.9945 27.0171C95.9945 27.9101 95.7911 28.6022 95.3844 29.0934C94.464 30.2767 93.458 31.2479 92.3663 32.007C91.2747 32.7661 90.0225 33.1456 88.6098 33.1456C84.2432 33.1456 82.0599 29.9418 82.0599 23.5342C82.0599 22.5518 82.092 21.5583 82.1562 20.5536H80.904C80.2619 20.5536 79.8274 20.4309 79.6005 20.1853C79.3779 19.9397 79.2665 19.549 79.2665 19.0131C79.2665 17.7629 79.7482 17.1377 80.7114 17.1377H82.5415C82.9054 14.6819 83.4619 12.4381 84.2111 10.4064C84.9602 8.3747 85.8635 6.75605 86.9209 5.55044C87.9826 4.34482 89.1235 3.74201 90.3436 3.74201C91.2426 3.74201 91.9489 4.15505 92.4627 4.98112C92.9764 5.80719 93.2332 6.84536 93.2332 8.09562C93.2332 11.5562 91.8419 14.5702 89.0593 17.1377H92.6553C92.9978 17.1377 93.2439 17.2159 93.3938 17.3722C93.5436 17.5284 93.6185 17.8187 93.6185 18.2429C93.6185 19.7834 92.4091 20.5536 89.9904 20.5536H86.0733C86.0305 21.67 86.0091 22.5407 86.0091 23.1658C86.0091 25.4877 86.2702 27.1176 86.7925 28.0553C87.3191 28.993 88.1496 29.4618 89.284 29.4618C90.2044 29.4618 91.0178 29.1716 91.7242 28.5911C92.4305 28.0106 93.2653 27.1399 94.2286 25.9789C94.4854 25.6663 94.7744 25.5101 95.0955 25.5101ZM89.4767 6.95699C89.1556 6.95699 88.796 7.37449 88.3979 8.20949C88.004 9.04895 87.6294 10.2099 87.2741 11.6924C86.9231 13.1793 86.6298 14.827 86.3944 16.6354C87.6573 15.4968 88.6034 14.2175 89.2327 12.7975C89.8662 11.382 90.183 10.0938 90.183 8.93286C90.183 7.61561 89.9476 6.95699 89.4767 6.95699ZM95.6734 33.1456C94.8557 33.1456 94.2821 32.6991 93.9524 31.8061C93.6228 30.913 93.458 29.4841 93.458 27.5194C93.458 24.617 93.854 21.8597 94.646 19.2476C94.8343 18.6001 95.149 18.1246 95.5899 17.8209C96.0308 17.5217 96.6473 17.3722 97.4393 17.3722C97.8674 17.3722 98.1671 17.428 98.3383 17.5396C98.5095 17.6512 98.5952 17.8633 98.5952 18.1759C98.5952 18.5331 98.4346 19.3369 98.1135 20.5871C97.8995 21.4802 97.7283 22.2616 97.5998 22.9314C97.4714 23.6012 97.3644 24.4272 97.2788 25.4096C97.9851 23.4895 98.7771 21.9267 99.6547 20.7211C100.532 19.5155 101.393 18.6559 102.236 18.1424C103.084 17.6289 103.859 17.3722 104.561 17.3722C105.952 17.3722 106.648 18.0978 106.648 19.549C106.648 19.8392 106.553 20.5425 106.365 21.6588C106.194 22.5518 106.108 23.11 106.108 23.3333C106.108 24.1147 106.376 24.5054 106.911 24.5054C107.51 24.5054 108.279 24.0142 109.216 23.0319C109.499 22.7416 109.79 22.5965 110.09 22.5965C110.364 22.5965 110.582 22.7238 110.745 22.9783C110.903 23.2373 110.982 23.5788 110.982 24.003C110.982 24.8291 110.768 25.4766 110.34 25.9454C109.745 26.5929 109.045 27.1443 108.24 27.5998C107.44 28.0597 106.588 28.2897 105.684 28.2897C104.554 28.2897 103.694 27.9883 103.103 27.3855C102.517 26.7827 102.223 25.9678 102.223 24.9407C102.223 24.6059 102.253 24.271 102.313 23.9361C102.36 23.4895 102.384 23.1881 102.384 23.0319C102.384 22.6746 102.266 22.496 102.031 22.496C101.71 22.496 101.286 22.8689 100.759 23.6146C100.237 24.3647 99.7189 25.3538 99.2052 26.5817C98.6915 27.8097 98.2741 29.1046 97.953 30.4665C97.7176 31.5158 97.4436 32.2236 97.1311 32.5897C96.8228 32.9603 96.3369 33.1456 95.6734 33.1456ZM122.316 25.5101C122.594 25.5101 122.815 25.644 122.977 25.9119C123.136 26.1799 123.215 26.5482 123.215 27.0171C123.215 27.9101 123.012 28.6022 122.605 29.0934C121.813 30.0981 120.696 31.0246 119.253 31.873C117.806 32.7214 116.258 33.1456 114.61 33.1456C112.363 33.1456 110.618 32.5093 109.377 31.2367C108.135 29.9641 107.515 28.2227 107.515 26.0124C107.515 24.4719 107.825 23.0386 108.446 21.7124C109.066 20.3817 109.929 19.3257 111.034 18.5443C112.134 17.7629 113.38 17.3722 114.771 17.3722C116.012 17.3722 117.008 17.7562 117.757 18.5242C118.506 19.2967 118.881 20.3415 118.881 21.6588C118.881 23.1993 118.352 24.521 117.294 25.6239C116.233 26.7313 114.439 27.6087 111.913 28.2562C112.448 29.2832 113.465 29.7967 114.963 29.7967C115.927 29.7967 117.025 29.4439 118.258 28.7384C119.486 28.0374 120.55 27.1176 121.449 25.9789C121.706 25.6663 121.995 25.5101 122.316 25.5101ZM114.225 20.6541C113.433 20.6541 112.765 21.1341 112.222 22.0942C111.674 23.0542 111.4 24.2151 111.4 25.577V25.644C112.662 25.3315 113.658 24.8626 114.386 24.2375C115.113 23.6123 115.477 22.8867 115.477 22.0607C115.477 21.6365 115.366 21.2971 115.143 21.0426C114.916 20.7836 114.61 20.6541 114.225 20.6541ZM124.403 33.1456C123.076 33.1456 122.016 32.6433 121.224 31.6386C120.432 30.6339 120.036 29.3167 120.036 27.6869C120.036 25.9008 120.432 24.2084 121.224 22.6099C122.016 21.0158 123.072 19.732 124.39 18.7586C125.704 17.7897 127.1 17.3052 128.577 17.3052C129.048 17.3052 129.365 17.399 129.527 17.5865C129.686 17.7785 129.818 18.1201 129.925 18.6113C130.375 18.522 130.846 18.4773 131.338 18.4773C132.387 18.4773 132.911 18.868 132.911 19.6494C132.911 20.1183 132.751 21.2346 132.43 22.9984C131.938 25.5659 131.691 27.352 131.691 28.3567C131.691 28.6915 131.773 28.9595 131.935 29.1604C132.094 29.3613 132.301 29.4618 132.558 29.4618C132.965 29.4618 133.457 29.1872 134.035 28.638C134.613 28.0932 135.394 27.2069 136.379 25.9789C136.636 25.6663 136.925 25.5101 137.246 25.5101C137.524 25.5101 137.745 25.644 137.907 25.9119C138.066 26.1799 138.145 26.5482 138.145 27.0171C138.145 27.9101 137.942 28.6022 137.535 29.0934C136.657 30.2321 135.726 31.1921 134.742 31.9735C133.757 32.7549 132.804 33.1456 131.884 33.1456C131.178 33.1456 130.531 32.8933 129.945 32.3888C129.354 31.8887 128.909 31.2032 128.609 30.3325C127.496 32.2079 126.094 33.1456 124.403 33.1456ZM125.559 29.7632C126.03 29.7632 126.479 29.473 126.907 28.8925C127.335 28.312 127.646 27.5418 127.839 26.5817L129.026 20.4197C128.127 20.442 127.299 20.7925 126.541 21.4713C125.779 22.1544 125.174 23.0542 124.724 24.1705C124.275 25.2868 124.05 26.4701 124.05 27.7204C124.05 28.4125 124.185 28.926 124.454 29.2609C124.72 29.5958 125.088 29.7632 125.559 29.7632ZM137.824 33.1456C137.01 33.1456 136.437 32.6991 136.103 31.8061C135.773 30.913 135.608 29.4841 135.608 27.5194C135.608 24.617 136.004 21.8597 136.796 19.2476C136.989 18.6001 137.304 18.1246 137.74 17.8209C138.181 17.5217 138.798 17.3722 139.59 17.3722C140.018 17.3722 140.318 17.428 140.489 17.5396C140.66 17.6512 140.746 17.8633 140.746 18.1759C140.746 18.5331 140.585 19.3369 140.264 20.5871C140.05 21.4802 139.879 22.2549 139.75 22.9113C139.622 23.5722 139.515 24.3938 139.429 25.3761C140.007 23.6347 140.696 22.1611 141.497 20.9555C142.302 19.7499 143.126 18.8502 143.969 18.2563C144.817 17.6669 145.615 17.3722 146.364 17.3722C147.114 17.3722 147.642 17.5508 147.951 17.908C148.263 18.2652 148.419 18.8122 148.419 19.549C148.419 20.2634 148.216 21.5583 147.809 23.4337C147.638 24.2375 147.52 24.8403 147.456 25.2422C148.526 22.496 149.714 20.4978 151.02 19.2476C152.326 17.9973 153.546 17.3722 154.68 17.3722C156.072 17.3722 156.767 18.0978 156.767 19.549C156.767 20.4197 156.532 21.9937 156.061 24.271C155.654 26.2133 155.451 27.4971 155.451 28.1222C155.451 29.0153 155.761 29.4618 156.382 29.4618C156.81 29.4618 157.317 29.1872 157.904 28.638C158.495 28.0932 159.282 27.2069 160.267 25.9789C160.524 25.6663 160.813 25.5101 161.134 25.5101C161.412 25.5101 161.63 25.644 161.789 25.9119C161.951 26.1799 162.033 26.5482 162.033 27.0171C162.033 27.9101 161.829 28.6022 161.423 29.0934C160.502 30.2767 159.511 31.2479 158.45 32.007C157.392 32.7661 156.189 33.1456 154.841 33.1456C153.749 33.1456 152.925 32.8152 152.368 32.1543C151.812 31.498 151.534 30.5446 151.534 29.2944C151.534 28.6692 151.684 27.5529 151.983 25.9454C152.261 24.5389 152.401 23.5677 152.401 23.0319C152.401 22.6746 152.283 22.496 152.047 22.496C151.769 22.496 151.373 22.8689 150.859 23.6146C150.346 24.3647 149.832 25.3538 149.318 26.5817C148.805 27.8097 148.387 29.1046 148.066 30.4665C147.831 31.5381 147.557 32.2526 147.244 32.6098C146.936 32.967 146.439 33.1456 145.754 33.1456C145.048 33.1456 144.517 32.7929 144.162 32.0874C143.811 31.3863 143.635 30.5335 143.635 29.5288C143.635 28.6804 143.742 27.4524 143.956 25.845C144.128 24.4161 144.213 23.4784 144.213 23.0319C144.213 22.6746 144.096 22.496 143.86 22.496C143.539 22.496 143.132 22.8979 142.64 23.7016C142.148 24.5054 141.67 25.5324 141.208 26.7827C140.75 28.0329 140.382 29.2609 140.104 30.4665C139.868 31.5158 139.594 32.2236 139.282 32.5897C138.973 32.9603 138.487 33.1456 137.824 33.1456ZM163.638 15.1619C162.739 15.1619 162.065 14.9431 161.615 14.5055C161.166 14.0723 160.941 13.4651 160.941 12.6837C160.941 11.9022 161.234 11.2481 161.821 10.7212C162.412 10.1988 163.146 9.93754 164.023 9.93754C164.815 9.93754 165.458 10.1385 165.95 10.5403C166.442 10.9422 166.688 11.5115 166.688 12.2483C166.688 13.1413 166.41 13.8491 165.854 14.3715C165.297 14.8984 164.559 15.1619 163.638 15.1619ZM163.381 33.1456C161.99 33.1456 160.978 32.6321 160.344 31.6051C159.715 30.5781 159.4 29.2162 159.4 27.5194C159.4 26.5147 159.522 25.2243 159.766 23.6481C160.014 22.0763 160.331 20.6095 160.716 19.2476C160.909 18.5331 161.166 18.0419 161.487 17.774C161.808 17.5061 162.322 17.3722 163.028 17.3722C164.12 17.3722 164.666 17.7517 164.666 18.5108C164.666 19.069 164.462 20.3639 164.056 22.3956C163.542 24.8514 163.285 26.5147 163.285 27.3855C163.285 28.0553 163.371 28.5688 163.542 28.926C163.713 29.2832 164.002 29.4618 164.409 29.4618C164.794 29.4618 165.276 29.1827 165.854 28.6246C166.431 28.0664 167.202 27.1845 168.165 25.9789C168.422 25.6663 168.711 25.5101 169.032 25.5101C169.31 25.5101 169.529 25.644 169.687 25.9119C169.85 26.1799 169.931 26.5482 169.931 27.0171C169.931 27.9101 169.728 28.6022 169.321 29.0934C167.202 31.7949 165.222 33.1456 163.381 33.1456ZM179.814 23.6012C180.413 23.6012 180.713 24.07 180.713 25.0077C180.713 26.7715 179.386 27.6534 176.732 27.6534C176.218 27.6534 175.479 27.5529 174.516 27.352C174.794 28.7362 175.026 30.27 175.21 31.9534C175.389 33.6413 175.479 35.0322 175.479 36.1262C175.479 38.5374 175.105 40.3793 174.356 41.6519C173.606 42.9245 172.622 43.5608 171.402 43.5608C169.861 43.5608 168.765 42.4222 168.114 40.1449C167.459 37.8676 167.131 34.4294 167.131 29.8302C167.131 25.5436 167.577 21.1944 168.467 16.7828C169.353 12.3756 170.573 8.72522 172.127 5.83175C173.677 2.94274 175.383 1.49823 177.245 1.49823C178.251 1.49823 179.039 1.96708 179.608 2.90478C180.173 3.84248 180.456 5.10391 180.456 6.68907C180.456 11.9357 177.449 17.6512 171.434 23.8356C171.22 26.0236 171.113 27.9436 171.113 29.5958C171.113 31.8954 171.188 34.2575 171.338 36.6821C171.487 39.1023 171.733 40.3123 172.076 40.3123C172.718 40.3123 173.039 39.1514 173.039 36.8295C173.039 35.088 172.928 33.4024 172.705 31.7726C172.478 30.1428 172.172 28.4236 171.787 26.6152C171.766 26.325 171.858 25.9566 172.063 25.5101C172.264 25.0635 172.515 24.6728 172.814 24.3379C173.114 24.003 173.382 23.8356 173.617 23.8356C174.045 23.8356 174.559 23.8579 175.158 23.9026C175.351 23.9249 175.576 23.9361 175.833 23.9361C176.689 23.9361 177.641 23.8579 178.69 23.7016C178.861 23.6793 179.043 23.657 179.236 23.6347C179.429 23.6123 179.621 23.6012 179.814 23.6012ZM176.571 4.81367C176.186 4.81367 175.711 5.49462 175.145 6.85652C174.576 8.21842 174.013 10.0201 173.457 12.2617C172.9 14.5077 172.418 16.881 172.012 19.3815C173.724 17.3498 175.041 15.2333 175.961 13.0319C176.881 10.835 177.352 8.77657 177.374 6.85652C177.374 5.49462 177.106 4.81367 176.571 4.81367ZM194.712 25.577C194.99 25.577 195.21 25.7155 195.373 25.9923C195.531 26.2736 195.611 26.6264 195.611 27.0506C195.611 27.5641 195.536 27.966 195.386 28.2562C195.236 28.5464 195.001 28.8032 194.68 29.0264L188.515 33.3466C187.702 37.9681 186.638 41.6006 185.323 44.244C184.005 46.8919 182.329 48.2158 180.295 48.2158C179.204 48.2158 178.315 47.8653 177.631 47.1643C176.946 46.4587 176.603 45.5367 176.603 44.398C176.603 43.3487 176.834 42.277 177.297 41.1831C177.755 40.0891 178.611 38.8343 179.865 37.4189C181.115 35.9989 182.885 34.3736 185.176 32.5428L185.272 31.7726C185.422 30.9465 185.593 29.7632 185.786 28.2227C185.358 29.8302 184.758 31.0514 183.988 31.8864C183.217 32.7259 182.404 33.1456 181.548 33.1456C180.584 33.1456 179.799 32.6812 179.191 31.7525C178.579 30.8282 178.273 29.6739 178.273 28.2897C178.273 26.6152 178.38 25.0792 178.594 23.6815C178.808 22.2884 179.161 20.8104 179.653 19.2476C179.867 18.5778 180.167 18.0978 180.552 17.8075C180.938 17.5173 181.548 17.3722 182.382 17.3722C182.853 17.3722 183.181 17.4503 183.365 17.6066C183.545 17.7629 183.635 17.9973 183.635 18.3099C183.635 18.4885 183.517 19.0913 183.281 20.1183C183.067 20.9444 182.896 21.6923 182.768 22.3621C182.596 23.2774 182.447 24.1526 182.318 24.9876C182.19 25.8271 182.126 26.5147 182.126 27.0506C182.126 27.899 182.35 28.3232 182.8 28.3232C183.121 28.3232 183.523 27.9883 184.007 27.3185C184.487 26.6487 185 25.6329 185.548 24.271C186.092 22.9091 186.621 21.2346 187.134 19.2476C187.306 18.5778 187.569 18.0978 187.924 17.8075C188.275 17.5173 188.804 17.3722 189.51 17.3722C190.003 17.3722 190.345 17.4391 190.538 17.5731C190.73 17.7071 190.827 17.9303 190.827 18.2429C190.827 18.801 190.548 20.7211 189.992 24.003L189.157 29.3948C190.805 28.0999 192.411 26.9166 193.973 25.845C194.251 25.6663 194.498 25.577 194.712 25.577ZM180.649 44.9674C181.184 44.9674 181.783 44.3199 182.447 43.025C183.11 41.7301 183.774 39.5756 184.437 36.5615C182.789 38.0127 181.597 39.3367 180.861 40.5334C180.12 41.7256 179.75 42.7682 179.75 43.6613C179.75 44.0408 179.82 44.3534 179.962 44.599C180.099 44.8446 180.328 44.9674 180.649 44.9674Z"
                                            fill="#FDFDFF" />
                                    </g>
                                </g>
                            </g>
                        </g>
                        <g clip-path="url(#clip9_62_165)">
                            <g clip-path="url(#clip10_62_165)">
                                <path
                                    d="M19.2191 39.7713C29.7315 39.7713 38.2841 30.8506 38.2841 19.8856C38.2841 18.1461 38.0672 16.4583 37.663 14.8491L35.4639 20.0104L32.2352 23.3979L32.8305 24.0492L29.2306 26.5995L28.2435 25.5197L30.8554 21.8896L31.6113 22.7163L34.5507 19.5958L37.225 13.3626C34.6303 5.59283 27.5414 0 19.2191 0C8.70662 0 0.154053 8.92069 0.154053 19.8856C0.154053 30.8506 8.70662 39.7713 19.2191 39.7713ZM19.2191 11.4342C23.6869 11.4342 27.3217 15.2254 27.3217 19.8856C27.3217 24.5458 23.6869 28.337 19.2191 28.337C14.7512 28.337 11.1164 24.5458 11.1164 19.8856C11.1164 15.2254 14.7512 11.4342 19.2191 11.4342Z"
                                    fill="#FDFDFF" />
                                <path
                                    d="M19.2191 25.8513C22.3781 25.8513 24.9386 23.1807 24.9386 19.8856C24.9386 16.5906 22.3781 13.9199 19.2191 13.9199C16.06 13.9199 13.4996 16.5906 13.4996 19.8856C13.4996 23.1807 16.06 25.8513 19.2191 25.8513ZM19.2191 18.8913C19.3443 18.8914 19.4683 18.9171 19.5839 18.9671C19.6996 19.0171 19.8047 19.0904 19.8932 19.1828C19.9817 19.2752 20.0519 19.3848 20.0998 19.5055C20.1477 19.6262 20.1724 19.7555 20.1723 19.8861C20.1723 20.0167 20.1476 20.146 20.0997 20.2667C20.0517 20.3873 19.9814 20.4969 19.8929 20.5893C19.8043 20.6816 19.6992 20.7548 19.5835 20.8048C19.4678 20.8547 19.3438 20.8804 19.2186 20.8804C18.9657 20.8803 18.7232 20.7755 18.5445 20.5889C18.3657 20.4024 18.2653 20.1494 18.2653 19.8856C18.2654 19.6218 18.3659 19.3689 18.5448 19.1824C18.7236 18.996 18.9662 18.8913 19.2191 18.8913Z"
                                    fill="#FDFDFF" />
                                <path
                                    d="M13.1087 0H3.0138C1.1073 0 0.154053 0.994281 0.154053 2.98284V13.5123C2.12061 7.10812 6.96884 2.0512 13.1087 0Z"
                                    fill="#FDFDFF" />
                                <path
                                    d="M41.6204 39.2741C39.518 39.2741 37.8074 41.0583 37.8074 43.2512C37.8074 45.4441 39.518 47.2284 41.6204 47.2284C43.7228 47.2284 45.4334 45.4441 45.4334 43.2512C45.4334 41.0583 43.7228 39.2741 41.6204 39.2741Z"
                                    fill="#FDFDFF" />
                                <path
                                    d="M44.9568 0H25.3337C31.0008 1.8951 35.5668 6.35346 37.7808 12.0671L39.1692 8.8322C38.7928 8.57385 38.4838 8.22208 38.2699 7.80845C38.0561 7.39482 37.944 6.93228 37.9438 6.46233C37.9438 4.89634 39.1653 3.62167 40.6672 3.62167C42.169 3.62167 43.3906 4.89683 43.3906 6.46283C43.3906 8.02882 42.1686 9.30349 40.6672 9.30349C40.4575 9.30349 40.254 9.27615 40.0576 9.22941L38.2617 13.4442C38.9083 15.5248 39.2376 17.6984 39.2373 19.8856C39.2373 31.4173 30.2749 40.7655 19.2191 40.7655C10.2943 40.7655 2.73736 34.6731 0.154053 26.259V46.7312C0.154053 48.7198 1.1073 49.7141 3.0138 49.7141H44.9568C46.8633 49.7141 47.8166 48.7198 47.8166 46.7312V2.98284C47.8166 0.994281 46.8633 0 44.9568 0ZM3.96705 48.2226C3.46142 48.2226 2.97649 48.0131 2.61895 47.6402C2.26142 47.2673 2.06055 46.7615 2.06055 46.2341C2.06055 45.7067 2.26142 45.2009 2.61895 44.8279C2.97649 44.455 3.46142 44.2455 3.96705 44.2455C4.47269 44.2455 4.95762 44.455 5.31515 44.8279C5.67269 45.2009 5.87356 45.7067 5.87356 46.2341C5.87356 46.7615 5.67269 47.2673 5.31515 47.6402C4.95762 48.0131 4.47269 48.2226 3.96705 48.2226ZM9.68656 48.2226C9.18092 48.2226 8.696 48.0131 8.33846 47.6402C7.98092 47.2673 7.78006 46.7615 7.78006 46.2341C7.78006 45.7067 7.98092 45.2009 8.33846 44.8279C8.696 44.455 9.18092 44.2455 9.68656 44.2455C10.1922 44.2455 10.6771 44.455 11.0347 44.8279C11.3922 45.2009 11.5931 45.7067 11.5931 46.2341C11.5931 46.7615 11.3922 47.2673 11.0347 47.6402C10.6771 48.0131 10.1922 48.2226 9.68656 48.2226ZM15.4061 48.2226C14.9004 48.2226 14.4155 48.0131 14.058 47.6402C13.7004 47.2673 13.4996 46.7615 13.4996 46.2341C13.4996 45.7067 13.7004 45.2009 14.058 44.8279C14.4155 44.455 14.9004 44.2455 15.4061 44.2455C15.9117 44.2455 16.3966 44.455 16.7542 44.8279C17.1117 45.2009 17.3126 45.7067 17.3126 46.2341C17.3126 46.7615 17.1117 47.2673 16.7542 47.6402C16.3966 48.0131 15.9117 48.2226 15.4061 48.2226ZM41.6204 48.2226C38.9923 48.2226 36.8542 45.9925 36.8542 43.2512C36.8542 40.51 38.9923 38.2798 41.6204 38.2798C44.2486 38.2798 46.3867 40.51 46.3867 43.2512C46.3867 45.9925 44.2486 48.2226 41.6204 48.2226Z"
                                    fill="#FDFDFF" />
                            </g>
                        </g>
                    </g>
                </g>
            </g>
        </g>
    </g>
    <defs>
        <clipPath id="clip0_62_165">
            <rect width="197" height="50" fill="white" />
        </clipPath>
        <clipPath id="clip1_62_165">
            <rect width="197" height="50" fill="white" transform="translate(-1.03265 -0.142975)" />
        </clipPath>
        <clipPath id="clip2_62_165">
            <rect width="195.463" height="49.7141" fill="white" transform="translate(0.154053)" />
        </clipPath>
        <clipPath id="clip3_62_165">
            <rect width="195.463" height="49.7141" fill="white" transform="translate(0.154053)" />
        </clipPath>
        <clipPath id="clip4_62_165">
            <rect width="195.463" height="49.7141" fill="white" transform="translate(0.154053)" />
        </clipPath>
        <clipPath id="clip5_62_165">
            <rect width="137.227" height="46.7176" fill="white" transform="translate(58.3904 1.49823)" />
        </clipPath>
        <clipPath id="clip6_62_165">
            <rect width="137.227" height="46.7176" fill="white" transform="translate(58.3904 1.49823)" />
        </clipPath>
        <clipPath id="clip7_62_165">
            <rect width="137.227" height="46.7176" fill="white" transform="translate(58.3904 1.49823)" />
        </clipPath>
        <clipPath id="clip8_62_165">
            <rect width="137.227" height="46.7176" fill="white" transform="translate(58.3904 1.49823)" />
        </clipPath>
        <clipPath id="clip9_62_165">
            <rect width="47.6625" height="49.7141" fill="white" transform="translate(0.154053)" />
        </clipPath>
        <clipPath id="clip10_62_165">
            <rect width="47.6625" height="49.7141" fill="white" transform="translate(0.154053)" />
        </clipPath>
    </defs>
</svg>