<svg width="100" height="99" viewBox="0 0 100 99" fill="none" xmlns="http://www.w3.org/2000/svg">
<g clip-path="url(#clip0_44_24)">
<g clip-path="url(#clip1_44_24)">
<path d="M39.804 78.7471C61.576 78.7471 79.2889 61.0841 79.2889 39.3735C79.2889 35.9293 78.8397 32.5875 78.0027 29.4012L73.4481 39.6206L66.7613 46.3279L67.9942 47.6174L60.5385 52.667L58.4942 50.529L63.9036 43.3414L65.4692 44.9784L71.5567 38.7997L77.0955 26.458C71.7216 11.0738 57.0401 0 39.804 0C18.032 0 0.319092 17.663 0.319092 39.3735C0.319092 61.0841 18.032 78.7471 39.804 78.7471ZM39.804 22.6398C49.0573 22.6398 56.5851 30.1463 56.5851 39.3735C56.5851 48.6007 49.0573 56.1073 39.804 56.1073C30.5507 56.1073 23.0229 48.6007 23.0229 39.3735C23.0229 30.1463 30.5507 22.6398 39.804 22.6398Z" fill="#4B6D9B"/>
<path d="M39.804 51.1856C46.3466 51.1856 51.6494 45.8977 51.6494 39.3735C51.6494 32.8493 46.3466 27.5615 39.804 27.5615C33.2613 27.5615 27.9585 32.8493 27.9585 39.3735C27.9585 45.8977 33.2613 51.1856 39.804 51.1856ZM39.804 37.4048C40.0633 37.4049 40.3201 37.4559 40.5596 37.5549C40.7992 37.6539 41.0168 37.799 41.2002 37.9819C41.3835 38.1648 41.5289 38.382 41.6281 38.6209C41.7273 38.8598 41.7783 39.1159 41.7782 39.3745C41.7781 39.6331 41.727 39.8892 41.6277 40.128C41.5284 40.3669 41.3829 40.584 41.1995 40.7668C41.0161 40.9496 40.7983 41.0946 40.5587 41.1935C40.3191 41.2924 40.0623 41.3432 39.803 41.3432C39.2792 41.3431 38.777 41.1355 38.4068 40.7661C38.0365 40.3967 37.8286 39.8958 37.8287 39.3735C37.8289 38.8513 38.037 38.3505 38.4075 37.9813C38.7779 37.6121 39.2802 37.4047 39.804 37.4048Z" fill="#4B6D9B"/>
<path d="M27.1491 0H6.24183C2.29334 0 0.319092 1.96868 0.319092 5.90603V26.7543C4.39196 14.0741 14.433 4.06138 27.1491 0Z" fill="#4B6D9B"/>
<path d="M86.1987 77.7627C81.8445 77.7627 78.3018 81.2955 78.3018 85.6374C78.3018 89.9793 81.8445 93.5121 86.1987 93.5121C90.5529 93.5121 94.0957 89.9793 94.0957 85.6374C94.0957 81.2955 90.5529 77.7627 86.1987 77.7627Z" fill="#4B6D9B"/>
<path d="M93.1086 0H52.4678C64.2047 3.7523 73.6613 12.5798 78.2465 23.8928L81.122 17.4878C80.3425 16.9762 79.7025 16.2797 79.2596 15.4607C78.8166 14.6417 78.5845 13.7259 78.5841 12.7954C78.5841 9.69475 81.1141 7.1709 84.2245 7.1709C87.3349 7.1709 89.8649 9.69573 89.8649 12.7964C89.8649 15.8971 87.3339 18.4209 84.2245 18.4209C83.7902 18.4209 83.3687 18.3668 82.962 18.2742L79.2425 26.6195C80.5818 30.739 81.2636 35.0429 81.2631 39.3735C81.2631 62.2062 62.7013 80.7157 39.804 80.7157C21.3201 80.7157 5.66929 68.6527 0.319092 51.9927V92.5278C0.319092 96.4651 2.29334 98.4338 6.24183 98.4338H93.1086C97.0571 98.4338 99.0313 96.4651 99.0313 92.5278V5.90603C99.0313 1.96868 97.0571 0 93.1086 0ZM8.21607 95.4808C7.16887 95.4808 6.16455 95.066 5.42407 94.3276C4.68358 93.5892 4.26758 92.5877 4.26758 91.5435C4.26758 90.4992 4.68358 89.4977 5.42407 88.7593C6.16455 88.0209 7.16887 87.6061 8.21607 87.6061C9.26327 87.6061 10.2676 88.0209 11.0081 88.7593C11.7486 89.4977 12.1646 90.4992 12.1646 91.5435C12.1646 92.5877 11.7486 93.5892 11.0081 94.3276C10.2676 95.066 9.26327 95.4808 8.21607 95.4808ZM20.0615 95.4808C19.0143 95.4808 18.01 95.066 17.2695 94.3276C16.529 93.5892 16.113 92.5877 16.113 91.5435C16.113 90.4992 16.529 89.4977 17.2695 88.7593C18.01 88.0209 19.0143 87.6061 20.0615 87.6061C21.1087 87.6061 22.1131 88.0209 22.8535 88.7593C23.594 89.4977 24.01 90.4992 24.01 91.5435C24.01 92.5877 23.594 93.5892 22.8535 94.3276C22.1131 95.066 21.1087 95.4808 20.0615 95.4808ZM31.907 95.4808C30.8598 95.4808 29.8555 95.066 29.115 94.3276C28.3745 93.5892 27.9585 92.5877 27.9585 91.5435C27.9585 90.4992 28.3745 89.4977 29.115 88.7593C29.8555 88.0209 30.8598 87.6061 31.907 87.6061C32.9542 87.6061 33.9585 88.0209 34.699 88.7593C35.4395 89.4977 35.8555 90.4992 35.8555 91.5435C35.8555 92.5877 35.4395 93.5892 34.699 94.3276C33.9585 95.066 32.9542 95.4808 31.907 95.4808ZM86.1987 95.4808C80.7557 95.4808 76.3275 91.0651 76.3275 85.6374C76.3275 80.2098 80.7557 75.794 86.1987 75.794C91.6417 75.794 96.07 80.2098 96.07 85.6374C96.07 91.0651 91.6417 95.4808 86.1987 95.4808Z" fill="#4B6D9B"/>
</g>
</g>
    <defs>
        <clipPath id="clip0_44_24">
            <rect width="98.7122" height="98.4338" fill="white" transform="translate(0.319092)"/>
        </clipPath>
        <clipPath id="clip1_44_24">
            <rect width="98.7122" height="98.4338" fill="white" transform="translate(0.319092)"/>
        </clipPath>
    </defs>
</svg>
